<?xml version="1.0" encoding="utf-8"?>
<!-- Generator: Fusion 360, Shaper Origin Export Add-In, Version 1.4.1  -->
<svg enable-background="new 0 0 25.4 20.32" height="20.32cm" shaper:fusionaddin="version:1.4.1" version="1.1" viewBox="0 0 25.4 20.32" width="25.4cm" x="0cm" xml:space="preserve" xmlns="http://www.w3.org/2000/svg" xmlns:shaper="http://www.shapertools.com/namespaces/shaper" xmlns:xlink="http://www.w3.org/1999/xlink" y="0cm"><path d="M25.4,20.32 L0,20.32 0,0 25.4,0 25.4,20.32z" fill="rgb(0,0,0)" shaper:cutDepth="0.0127" shaper:pathType="exterior" transform="matrix(1,0,0,-1,-0,20.32)" vector-effect="non-scaling-stroke" /><path d="M23.876,11.684 L23.876,1.524 3.556,1.524 3.556,11.684 23.876,11.684z" fill="rgb(150,150,150)" fill-rule="nonzero" shaper:cutDepth="0.00635" shaper:pathType="hogging" transform="matrix(1,0,0,-1,-0,20.32)" vector-effect="non-scaling-stroke" /><path d="M23.876,18.796 L23.876,13.208 7.239,13.208 7.239,18.796 23.876,18.796z" fill="rgb(150,150,150)" fill-rule="nonzero" shaper:cutDepth="0.00635" shaper:pathType="hogging" transform="matrix(1,0,0,-1,-0,20.32)" vector-effect="non-scaling-stroke" /><path d="M5.715,17.526 L5.715,13.208 1.397,13.208 1.397,17.526 5.715,17.526z" fill="rgb(150,150,150)" fill-rule="nonzero" shaper:cutDepth="0.00635" shaper:pathType="hogging" transform="matrix(1,0,0,-1,-0,20.32)" vector-effect="non-scaling-stroke" /><path d="M24.213185,19.304 a0.170815,0.170815 0 1,1 0.34163,0 a0.170815,0.170815 0 1,1 -0.34163,0z" fill="rgb(255,255,255)" shaper:cutDepth="0.0127" shaper:pathType="interior" stroke="rgb(0,0,0)" stroke-width="2" transform="matrix(1,0,0,-1,-0,20.32)" vector-effect="non-scaling-stroke" /><path d="M0.845185,19.304 a0.170815,0.170815 0 1,1 0.34163,0 a0.170815,0.170815 0 1,1 -0.34163,0z" fill="rgb(255,255,255)" shaper:cutDepth="0.0127" shaper:pathType="interior" stroke="rgb(0,0,0)" stroke-width="2" transform="matrix(1,0,0,-1,-0,20.32)" vector-effect="non-scaling-stroke" /><path d="M0.845185,1.016 a0.170815,0.170815 0 1,1 0.34163,0 a0.170815,0.170815 0 1,1 -0.34163,0z" fill="rgb(255,255,255)" shaper:cutDepth="0.0127" shaper:pathType="interior" stroke="rgb(0,0,0)" stroke-width="2" transform="matrix(1,0,0,-1,-0,20.32)" vector-effect="non-scaling-stroke" /><path d="M24.213185,1.016 a0.170815,0.170815 0 1,1 0.34163,0 a0.170815,0.170815 0 1,1 -0.34163,0z" fill="rgb(255,255,255)" shaper:cutDepth="0.0127" shaper:pathType="interior" stroke="rgb(0,0,0)" stroke-width="2" transform="matrix(1,0,0,-1,-0,20.32)" vector-effect="non-scaling-stroke" /><path d="M5.16255,13.589 a0.17145,0.17145 0 1,1 0.3429,0 a0.17145,0.17145 0 1,1 -0.3429,0z" fill="rgb(255,255,255)" shaper:cutDepth="0.0127" shaper:pathType="interior" stroke="rgb(0,0,0)" stroke-width="2" transform="matrix(1,0,0,-1,-0,20.32)" vector-effect="non-scaling-stroke" /><path d="M1.60655,13.589 a0.17145,0.17145 0 1,1 0.3429,0 a0.17145,0.17145 0 1,1 -0.3429,0z" fill="rgb(255,255,255)" shaper:cutDepth="0.0127" shaper:pathType="interior" stroke="rgb(0,0,0)" stroke-width="2" transform="matrix(1,0,0,-1,-0,20.32)" vector-effect="non-scaling-stroke" /><path d="M5.16255,17.145 a0.17145,0.17145 0 1,1 0.3429,0 a0.17145,0.17145 0 1,1 -0.3429,0z" fill="rgb(255,255,255)" shaper:cutDepth="0.0127" shaper:pathType="interior" stroke="rgb(0,0,0)" stroke-width="2" transform="matrix(1,0,0,-1,-0,20.32)" vector-effect="non-scaling-stroke" /><path d="M1.60655,17.145 a0.17145,0.17145 0 1,1 0.3429,0 a0.17145,0.17145 0 1,1 -0.3429,0z" fill="rgb(255,255,255)" shaper:cutDepth="0.0127" shaper:pathType="interior" stroke="rgb(0,0,0)" stroke-width="2" transform="matrix(1,0,0,-1,-0,20.32)" vector-effect="non-scaling-stroke" /></svg>